<?xml version="1.0" encoding="utf-8"?>
<!-- Svg Vector Icons : http://www.onlinewebfonts.com/icon -->
<!DOCTYPE svg PUBLIC "-//W3C//DTD SVG 1.1//EN" "http://www.w3.org/Graphics/SVG/1.1/DTD/svg11.dtd">
<svg version="1.1" xmlns="http://www.w3.org/2000/svg" xmlns:xlink="http://www.w3.org/1999/xlink" x="0px" y="0px" viewBox="0 0 256 256" enable-background="new 0 0 256 256" xml:space="preserve">
<metadata> Svg Vector Icons : http://www.onlinewebfonts.com/icon </metadata>
<g><g><g><path fill="#000000" d="M127.4,30.1c-0.5,0.8-8.7,22.1-10.3,26.6c-4.7,13.5-9.5,37.7-12.6,63l-1.1,8.7h-4.1h-4.1l0.3-2.9c0.8-7,3.6-26.5,5.1-34.8c3.6-20.4,6.7-31.7,13.2-48.4c2.3-5.9,4.1-10.8,4-10.9c-0.4-0.5-9.3,6.9-13.9,11.6c-21,21.1-34.4,50.9-36.6,80.9l-0.3,4.5H40.6c-28.2,0-28.9,0-30.1,2.2c-0.3,0.6-0.5,4.4-0.5,10c0,11.8,0.1,12,5.8,12.3l2.3,0.1l0.3,19.8c0.2,18.9,0.3,20,1.3,23.2c2.2,7.3,5.9,13.3,11.7,18.7c6.1,5.8,12.8,9.2,20.9,10.6c6.1,1.1,145.6,1.1,151.6,0c7.9-1.4,14.7-4.8,20.6-10.3c4.4-4.1,7.1-7.9,9.5-13c3.4-7.3,3.4-7.1,3.7-29.2l0.3-19.8l2.5-0.1c3-0.1,4.3-0.7,5-2.3c0.7-1.5,0.7-18.8,0-20c-1.2-2.2-1.8-2.2-30.1-2.2H189l-0.3-4.3c-1.2-16.7-5.3-31.7-12.5-46.8c-6.5-13.5-13.8-23.9-24.3-34.5c-5.2-5.3-14.2-12.6-14.5-11.8c-0.1,0.2,1.6,4.9,3.7,10.3c2.2,5.4,4.6,12.1,5.5,14.9c4.6,14.2,8.9,36,12.3,62.1l1.3,10h-4.1H152l-0.3-1.5c-0.1-0.8-0.6-4.1-0.9-7.2c-2.8-22.5-7.5-46.6-11.7-60.1c-1.2-3.7-10.9-29.2-11.3-29.6C127.7,29.7,127.5,29.9,127.4,30.1z M237.7,140.8v4.1H128H18.3v-4.1v-4.1H128h109.7V140.8z"/></g></g></g>
</svg>