<?xml version="1.0" encoding="utf-8"?>
<!-- Svg Vector Icons : http://www.onlinewebfonts.com/icon -->
<!DOCTYPE svg PUBLIC "-//W3C//DTD SVG 1.1//EN" "http://www.w3.org/Graphics/SVG/1.1/DTD/svg11.dtd">
<svg version="1.1" xmlns="http://www.w3.org/2000/svg" xmlns:xlink="http://www.w3.org/1999/xlink" x="0px" y="0px" viewBox="0 0 256 256" enable-background="new 0 0 256 256" xml:space="preserve">
<metadata> Svg Vector Icons : http://www.onlinewebfonts.com/icon </metadata>
<g><g><g><path fill="#000000" d="M121.9,28c-13.7,5.7-24.3,13-34.9,23.9c-14.2,14.6-23.6,32.4-27.5,51.8c-1.8,8.8-2.2,15.1-2.2,32.3v15.6H33.6H10v3.9v3.9h7.9h7.8l0.1,29.4l0.1,29.4l1.3,2.6c2,3.7,3.9,5.7,7.4,7.6l3.1,1.7H128h90.2l3.1-1.7c3.5-1.9,5.4-3.8,7.4-7.6l1.3-2.6l0.1-29.4l0.1-29.4h7.8h7.9v-3.9v-3.9h-23.6h-23.5l-0.2-18.8c-0.2-19.7-0.5-23.6-2.9-32.8c-6.4-25.7-22.2-48.1-44.1-62.7c-7.5-5-21.3-11.7-24.1-11.5C127.2,25.9,124.6,26.8,121.9,28z M112.7,48.5c-0.3,0.6-2.5,4.4-4.8,8.5c-6.8,12-10.8,22.2-13.1,33.8c-1.9,9.4-2.2,15.2-2.2,38.8v22h-5.9h-5.9l0.2-22c0.2-23.1,0.3-24.5,2.9-34.3c3.1-12.2,9.1-24.4,17.1-34.9c2-2.7,11.8-13,12.2-13C113.2,47.5,113,48,112.7,48.5z M153.7,58.8c11.6,14.2,19,32.2,21,50.2c0.3,2.7,0.5,13.3,0.5,23.7v18.9h-5.9h-5.9v-22c0-23.6-0.3-29.4-2.2-38.8c-2.4-11.7-6.3-21.8-13.1-33.8c-2.3-4-4.5-7.9-4.8-8.6C142.4,46.7,150.1,54.3,153.7,58.8z M130.1,60.3c4.6,23.6,5.3,32.3,5.6,64.7l0.2,26.7h-8h-8l0.2-26.9c0.2-27.8,0.7-35.2,3-50c1.3-8,4.4-23.8,4.7-23.8C128.1,50.9,129.1,55.2,130.1,60.3z M94.4,56.5c-11.7,15.5-19,34.4-20.9,53.9c-0.2,2.8-0.5,13.2-0.5,23.2v18.1H69h-3.9v-16.5c0-9.1,0.2-18.6,0.5-21.3c1.9-17.8,8.4-34.2,19.1-48.3c3.2-4.2,11.6-13.3,12.3-13.3C97.3,52.4,96,54.2,94.4,56.5z M163.8,57.1c12.3,12.9,20.2,27.1,24.4,44c2.3,9.3,2.8,15.2,2.8,33.7v16.9H187h-3.9v-18.1c0-10-0.2-20.4-0.5-23.2c-1.9-19.5-9.2-38.3-20.9-53.9c-1.7-2.2-2.9-4.1-2.7-4.1C159.2,52.4,161.3,54.5,163.8,57.1z M118.2,58.9c-4.5,22.6-5.5,34.1-5.8,66.6l-0.2,26.2h-5.9h-5.9v-22.9c0-12.8,0.2-25,0.5-27.7c1.1-10.5,3.9-20.7,8.1-29.6c2.4-5,9.7-18.2,9.9-17.9C119.2,53.7,118.8,56.1,118.2,58.9z M146.2,70.3c4.7,9.7,7.6,19.8,8.8,30.8c0.3,2.7,0.5,14.8,0.5,27.7v22.9h-5.9h-5.8l-0.2-26.2c-0.3-27.6-0.6-33.6-3.1-50.5c-0.7-4.7-1.8-11.4-2.4-14.8c-0.7-3.4-1.2-6.4-1.2-6.6C136.8,52.8,143.2,64.1,146.2,70.3z M222.3,188.8c-0.1,28.7-0.1,29.3-1.2,30.6c-0.5,0.7-1.8,1.8-2.7,2.2c-1.6,0.8-6.9,0.9-90.4,0.9s-88.8,0-90.4-0.9c-0.9-0.4-2.2-1.5-2.7-2.2c-1-1.4-1-2-1.2-30.6l-0.1-29.2H128h94.4L222.3,188.8z"/><path fill="#000000" d="M159.5,210.7v3.9h17.7h17.7v-3.9v-3.9h-17.7h-17.7V210.7z"/><path fill="#000000" d="M202.7,210.7v3.9h3.9h3.9v-3.9v-3.9h-3.9h-3.9L202.7,210.7L202.7,210.7z"/></g></g></g>
</svg>