<?xml version="1.0" encoding="utf-8"?>
<!-- Svg Vector Icons : http://www.onlinewebfonts.com/icon -->
<!DOCTYPE svg PUBLIC "-//W3C//DTD SVG 1.1//EN" "http://www.w3.org/Graphics/SVG/1.1/DTD/svg11.dtd">
<svg version="1.1" xmlns="http://www.w3.org/2000/svg" xmlns:xlink="http://www.w3.org/1999/xlink" x="0px" y="0px" viewBox="0 0 256 256" enable-background="new 0 0 256 256" xml:space="preserve">
<metadata> Svg Vector Icons : http://www.onlinewebfonts.com/icon </metadata>
<g><g><g><path fill="#000000" d="M122.7,30.4c-5.5,2.8-11.2,7.3-18.5,14.5C93.9,55.2,86.4,65.6,80.1,78.6c-7.4,15-11.7,30.8-12.7,46.6L67,130H40.6c-28.2,0-28.9,0-30.1,2.2c-0.3,0.6-0.5,4.4-0.5,10c0,11.8,0.1,12,5.8,12.3l2.3,0.1l0.2,19.6c0.3,21.1,0.3,21.3,3,27.6c4.9,11.6,14.8,20.4,27.2,24.3l4.1,1.3H128h75.4l4.1-1.3c14.2-4.4,24.8-15,28.9-28.9c1-3.2,1.1-4.4,1.3-23l0.3-19.6l2.5-0.1c3-0.1,4.3-0.7,5-2.3c0.7-1.5,0.7-18.8,0-20c-1.2-2.2-1.8-2.2-30.1-2.2H189l-0.3-4.7c-2-29.9-15.1-58.5-36.6-80.1c-3.7-3.7-8.6-8.1-10.9-9.8c-5-3.7-10.9-6.8-13.1-6.8C127,28.6,124.9,29.3,122.7,30.4z M134.4,47.1c6.3,12.8,11.4,33.8,15.8,63.7c1,6.8,1.9,14,2.1,15.8l0.4,3.4H128h-24.5v-1.1c0-1.8,2.3-18.4,3.7-27.5c4.9-30.6,11.2-51.4,18.3-60.8l2.2-2.9l2.2,2.3C131.2,41.4,133,44.3,134.4,47.1z M111.6,49.4c-4.2,10.4-8.4,27.2-11.7,46.7c-1.4,8.2-3.9,25.4-4.5,30.9l-0.3,2.9h-10H75l0.2-1.3c0.1-0.7,0.3-3.1,0.5-5.3c1.4-22.1,11.2-46.5,26-64.9c3.1-3.9,10.3-11.6,10.6-11.3C112.3,47.3,112.1,48.3,111.6,49.4z M149,52.4c18.9,20.9,29.8,46.1,31.5,72.8l0.3,4.7h-10h-10l-0.5-4.5c-4.2-34.8-9.9-61.4-16.4-77.2C143.1,46.4,144.8,47.7,149,52.4z M237.7,142.3v4.1H128H18.3v-4.1v-4H128h109.7V142.3z M229.7,173.4c-0.2,20.8-0.3,21.5-3.6,28.5c-1.6,3.3-2.6,4.6-6.1,8.1c-4.7,4.7-8.6,7-14.8,8.5c-3.5,0.9-5,0.9-77.2,0.9c-72.2,0-73.7,0-77.2-0.9c-6.2-1.6-10-3.8-14.8-8.5c-3.5-3.5-4.5-4.8-6.1-8.1c-3.4-7-3.5-7.7-3.6-28.5L26,154.9h102h102L229.7,173.4z"/></g></g></g>
</svg>